<?xml version="1.0" encoding="iso-8859-1"?>
<!-- Generator: Adobe Illustrator 16.0.0, SVG Export Plug-In . SVG Version: 6.00 Build 0)  -->
<!DOCTYPE svg PUBLIC "-//W3C//DTD SVG 1.1//EN" "http://www.w3.org/Graphics/SVG/1.1/DTD/svg11.dtd">
<svg version="1.1" id="Capa_1" xmlns="http://www.w3.org/2000/svg" xmlns:xlink="http://www.w3.org/1999/xlink" x="0px" y="0px"
	 width="361.471px" height="361.471px" viewBox="0 0 361.471 361.471" style="enable-background:new 0 0 361.471 361.471;"
	 xml:space="preserve">
<g>
	<g>
		<g>
			<path d="M297.538,152.79c-3.135,0-6.354,0.289-9.956,0.919c-0.973-2.312-1.976-4.618-3.039-6.899l-0.426-0.949
				c-4.672-9.944-9.325-18.002-14.58-25.208c1.453-1.633,3.339-3.284,5.086-4.821c5.957-5.261,14.111-12.472,10.629-22.95
				c-1.549-4.984-4.804-8.797-9.211-10.719c-9.361-4.125-23.791,1.939-34.486,7.067c-2.695,1.285-5.758,2.738-7.056,3.117
				c-4.347,1.249-6.869,5.8-5.632,10.094c1.171,4.227,5.488,6.929,10.154,5.674c2.63-0.769,5.854-2.3,9.722-4.131
				C254.171,101.365,263.25,97,268.192,97c0.805,0,1.159,0.132,1.411,0.438c-0.336,1.243-4.209,4.653-5.86,6.119
				c-4.563,4.029-10.545,9.313-12.406,16.807H118.466c-4.513,0-8.185,3.675-8.185,8.197c0,0.901,0.147,1.795,0.447,2.63
				c-5.218,7.512-10.268,16.663-14.985,25.508l-3.123,5.837c-9.358-5.309-19.75-8.088-30.327-8.088
				C27.946,154.447,0,182.387,0,216.735c0,34.359,27.94,62.312,62.294,62.312c34.356,0,62.314-27.952,62.314-62.312
				c0-6.041-0.885-12.016-2.615-17.811l139.167-61.309c2.756,4.479,5.428,9.5,8.088,15.21l0.654,1.411
				c0.631,1.363,1.226,2.744,1.813,4.125c-23.322,10.178-38.143,32.606-38.143,58.367c0,35.26,28.691,63.945,63.951,63.945
				c35.261,0,63.945-28.686,63.945-63.945C361.482,181.475,332.798,152.79,297.538,152.79z M297.538,264.287
				c-26.229,0-47.552-21.329-47.552-47.546c0-18.729,11.078-35.59,27.97-43.21l1.952,4.941c6.053,15.618,12.31,31.766,22.104,46.478
				c2.468,3.608,7.733,4.647,11.391,2.203c3.711-2.51,4.72-7.596,2.24-11.367c-8.773-13.168-14.441-27.777-20.435-43.264
				l-1.261-3.153c1.261-0.12,2.438-0.18,3.591-0.18c26.204,0,47.521,21.329,47.521,47.546
				C345.065,242.958,323.742,264.287,297.538,264.287z M62.294,262.648c-25.301,0-45.895-20.603-45.895-45.913
				c0-25.305,20.593-45.889,45.895-45.889c7.842,0,15.522,2.078,22.446,6.041c-6.899,12.052-15.63,25.484-24.688,31.405
				l-8.935,3.933c-3.885,1.712-5.84,6.186-4.471,10.124c1.33,3.945,5.158,6.426,9.764,5.327c3.981-1.004,7.866-2.697,10.965-4.708
				l39.458-17.378c0.904,3.621,1.366,7.35,1.366,11.145C108.209,242.057,87.61,262.648,62.294,262.648z M126.857,136.763h95.561
				L115.22,183.979c-2.615-4.174-5.72-8.047-9.292-11.529l4.284-8.017C115.631,154.279,121.381,143.801,126.857,136.763z
				 M94.077,193.298c1.225-1.981,2.387-3.939,3.483-5.837c0.859,1.045,1.678,2.12,2.447,3.225L94.077,193.298z"/>
		</g>
		<g>
			<path d="M106.234,124.249h0.174l36.407-3.453c16.873,0,20.407-6.804,20.407-12.514c0-11.367-13.742-11.313-19.954-11.349
				l-37.041-4.611c-11.244,0-20.414,7.164-20.414,15.96C85.821,117.085,94.996,124.249,106.234,124.249z"/>
		</g>
	</g>
</g>
<g>
</g>
<g>
</g>
<g>
</g>
<g>
</g>
<g>
</g>
<g>
</g>
<g>
</g>
<g>
</g>
<g>
</g>
<g>
</g>
<g>
</g>
<g>
</g>
<g>
</g>
<g>
</g>
<g>
</g>
</svg>
